<svg width="100" height="100" viewBox="0 0 100 100" fill="none" xmlns="http://www.w3.org/2000/svg">
<path d="M26.3158 22.3684H58.2237L73.6842 37.8289V77.6316H26.3158V22.3684ZM31.579 27.6316V72.3684H68.4211V43.4211H52.6316V27.6316H31.579ZM57.8947 29.2763V38.1579H66.7763L57.8947 29.2763ZM34.2105 30.2632H50V36.8421H34.2105V30.2632ZM34.2105 39.4737H50V43.4211H34.2105V39.4737ZM34.2105 46.0526H65.7895V50H34.2105V46.0526ZM34.2105 52.6316H65.7895V56.5789H34.2105V52.6316ZM34.2105 59.2105H65.7895V63.1579H34.2105V59.2105ZM34.2105 65.7895H65.7895V69.7368H34.2105V65.7895Z" fill="white"/>
<path d="M26.8047 90.5391H25.4531V89.5781H26.75C27.3229 89.5781 27.7865 89.4974 28.1406 89.3359C28.4948 89.1745 28.7526 88.9505 28.9141 88.6641C29.0755 88.3776 29.1562 88.0469 29.1562 87.6719C29.1562 87.3125 29.0677 86.9844 28.8906 86.6875C28.7135 86.3854 28.4401 86.1458 28.0703 85.9688C27.7005 85.7865 27.224 85.6953 26.6406 85.6953C26.2031 85.6953 25.8073 85.7786 25.4531 85.9453C25.099 86.1068 24.8177 86.3333 24.6094 86.625C24.401 86.9115 24.2969 87.2422 24.2969 87.6172H22.7891C22.7891 87.1328 22.8906 86.6979 23.0938 86.3125C23.2969 85.9219 23.5755 85.5911 23.9297 85.3203C24.2839 85.0443 24.6927 84.8333 25.1562 84.6875C25.625 84.5417 26.1198 84.4688 26.6406 84.4688C27.25 84.4688 27.8021 84.5391 28.2969 84.6797C28.7917 84.8151 29.2161 85.0182 29.5703 85.2891C29.9245 85.5599 30.1953 85.8958 30.3828 86.2969C30.5703 86.6979 30.6641 87.1641 30.6641 87.6953C30.6641 88.0859 30.5729 88.4531 30.3906 88.7969C30.2083 89.1406 29.9479 89.4427 29.6094 89.7031C29.2708 89.9635 28.8646 90.1693 28.3906 90.3203C27.9167 90.4661 27.388 90.5391 26.8047 90.5391ZM25.4531 89.875H26.8047C27.4453 89.875 28.0156 89.9401 28.5156 90.0703C29.0156 90.2005 29.4375 90.3906 29.7812 90.6406C30.125 90.8906 30.3854 91.2005 30.5625 91.5703C30.7448 91.9349 30.8359 92.3542 30.8359 92.8281C30.8359 93.3594 30.7318 93.8307 30.5234 94.2422C30.3203 94.6536 30.0312 95.0026 29.6562 95.2891C29.2812 95.5755 28.8359 95.7917 28.3203 95.9375C27.8099 96.0833 27.25 96.1562 26.6406 96.1562C26.151 96.1562 25.6667 96.0938 25.1875 95.9688C24.7135 95.8385 24.2839 95.6406 23.8984 95.375C23.513 95.1042 23.2031 94.7604 22.9688 94.3438C22.7396 93.9271 22.625 93.4271 22.625 92.8438H24.1328C24.1328 93.224 24.237 93.5729 24.4453 93.8906C24.6589 94.2083 24.9531 94.4635 25.3281 94.6562C25.7031 94.8438 26.1406 94.9375 26.6406 94.9375C27.2135 94.9375 27.6979 94.849 28.0938 94.6719C28.4948 94.4896 28.7995 94.2422 29.0078 93.9297C29.2214 93.612 29.3281 93.2552 29.3281 92.8594C29.3281 92.5104 29.2708 92.2083 29.1562 91.9531C29.0469 91.6927 28.8828 91.4792 28.6641 91.3125C28.4505 91.1458 28.1823 91.0234 27.8594 90.9453C27.5417 90.862 27.1719 90.8203 26.75 90.8203H25.4531V89.875ZM37.5859 94.5547V90.2031C37.5859 89.8698 37.5182 89.5807 37.3828 89.3359C37.2526 89.0859 37.0547 88.8932 36.7891 88.7578C36.5234 88.6224 36.1953 88.5547 35.8047 88.5547C35.4401 88.5547 35.1198 88.6172 34.8438 88.7422C34.5729 88.8672 34.3594 89.0312 34.2031 89.2344C34.0521 89.4375 33.9766 89.6562 33.9766 89.8906H32.5312C32.5312 89.5885 32.6094 89.2891 32.7656 88.9922C32.9219 88.6953 33.1458 88.4271 33.4375 88.1875C33.7344 87.9427 34.0885 87.75 34.5 87.6094C34.9167 87.4635 35.3802 87.3906 35.8906 87.3906C36.5052 87.3906 37.0469 87.4948 37.5156 87.7031C37.9896 87.9115 38.3594 88.2266 38.625 88.6484C38.8958 89.0651 39.0312 89.5885 39.0312 90.2188V94.1562C39.0312 94.4375 39.0547 94.737 39.1016 95.0547C39.1536 95.3724 39.2292 95.6458 39.3281 95.875V96H37.8203C37.7474 95.8333 37.6901 95.612 37.6484 95.3359C37.6068 95.0547 37.5859 94.7943 37.5859 94.5547ZM37.8359 90.875L37.8516 91.8906H36.3906C35.9792 91.8906 35.612 91.9245 35.2891 91.9922C34.9661 92.0547 34.6953 92.151 34.4766 92.2812C34.2578 92.4115 34.0911 92.5755 33.9766 92.7734C33.862 92.9661 33.8047 93.1927 33.8047 93.4531C33.8047 93.7188 33.8646 93.9609 33.9844 94.1797C34.1042 94.3984 34.2839 94.5729 34.5234 94.7031C34.7682 94.8281 35.0677 94.8906 35.4219 94.8906C35.8646 94.8906 36.2552 94.7969 36.5938 94.6094C36.9323 94.4219 37.2005 94.1927 37.3984 93.9219C37.6016 93.651 37.7109 93.388 37.7266 93.1328L38.3438 93.8281C38.3073 94.0469 38.2083 94.2891 38.0469 94.5547C37.8854 94.8203 37.6693 95.0755 37.3984 95.3203C37.1328 95.5599 36.8151 95.7604 36.4453 95.9219C36.0807 96.0781 35.6693 96.1562 35.2109 96.1562C34.638 96.1562 34.1354 96.0443 33.7031 95.8203C33.276 95.5964 32.9427 95.2969 32.7031 94.9219C32.4688 94.5417 32.3516 94.1172 32.3516 93.6484C32.3516 93.1953 32.4401 92.7969 32.6172 92.4531C32.7943 92.1042 33.0495 91.8151 33.3828 91.5859C33.7161 91.3516 34.1172 91.1745 34.5859 91.0547C35.0547 90.9349 35.5781 90.875 36.1562 90.875H37.8359ZM43.0156 91.9688H44.5781L42.1328 96H40.5703L43.0156 91.9688ZM44.2266 87.5469H47.7578V96H46.3125V88.7188H44.2266C43.8151 88.7188 43.4792 88.7891 43.2188 88.9297C42.9583 89.0651 42.7682 89.2422 42.6484 89.4609C42.5286 89.6797 42.4688 89.9062 42.4688 90.1406C42.4688 90.3698 42.5234 90.5911 42.6328 90.8047C42.7422 91.013 42.9141 91.1849 43.1484 91.3203C43.3828 91.4557 43.6849 91.5234 44.0547 91.5234H46.7031V92.7109H44.0547C43.5703 92.7109 43.1406 92.6458 42.7656 92.5156C42.3906 92.3854 42.0729 92.2057 41.8125 91.9766C41.5521 91.7422 41.3542 91.4688 41.2188 91.1562C41.0833 90.8385 41.0156 90.4948 41.0156 90.125C41.0156 89.7552 41.0859 89.4141 41.2266 89.1016C41.3724 88.7891 41.5807 88.5156 41.8516 88.2812C42.1276 88.0469 42.4635 87.8672 42.8594 87.7422C43.2604 87.612 43.7161 87.5469 44.2266 87.5469ZM54.0547 92.2812H51.2812L51.2656 91.125H53.5312C53.9792 91.125 54.3516 91.0807 54.6484 90.9922C54.9505 90.9036 55.1771 90.7708 55.3281 90.5938C55.4792 90.4167 55.5547 90.1979 55.5547 89.9375C55.5547 89.7344 55.5104 89.5573 55.4219 89.4062C55.3385 89.25 55.2109 89.1224 55.0391 89.0234C54.8672 88.9193 54.6536 88.8438 54.3984 88.7969C54.1484 88.7448 53.8542 88.7188 53.5156 88.7188H51.6641V96H50.2188V87.5469H53.5156C54.0521 87.5469 54.5339 87.5938 54.9609 87.6875C55.3932 87.7812 55.7604 87.9245 56.0625 88.1172C56.3698 88.3047 56.6042 88.5443 56.7656 88.8359C56.9271 89.1276 57.0078 89.4714 57.0078 89.8672C57.0078 90.1224 56.9557 90.3646 56.8516 90.5938C56.7474 90.8229 56.5938 91.026 56.3906 91.2031C56.1875 91.3802 55.9375 91.526 55.6406 91.6406C55.3438 91.75 55.0026 91.8203 54.6172 91.8516L54.0547 92.2812ZM54.0547 96H50.7578L51.4766 94.8281H54.0547C54.4557 94.8281 54.7891 94.7786 55.0547 94.6797C55.3203 94.5755 55.5182 94.4297 55.6484 94.2422C55.7839 94.0495 55.8516 93.8203 55.8516 93.5547C55.8516 93.2891 55.7839 93.0625 55.6484 92.875C55.5182 92.6823 55.3203 92.5365 55.0547 92.4375C54.7891 92.3333 54.4557 92.2812 54.0547 92.2812H51.8594L51.875 91.125H54.6172L55.1406 91.5625C55.6042 91.599 55.9974 91.7135 56.3203 91.9062C56.6432 92.099 56.888 92.3438 57.0547 92.6406C57.2214 92.9323 57.3047 93.25 57.3047 93.5938C57.3047 93.9896 57.2292 94.3385 57.0781 94.6406C56.9323 94.9427 56.7188 95.1953 56.4375 95.3984C56.1562 95.5964 55.8151 95.7474 55.4141 95.8516C55.013 95.9505 54.5599 96 54.0547 96ZM60.8125 87.5469V96H59.3672V87.5469H60.8125ZM66.3594 87.5469L62.3516 92.3906H60.3281L60.1094 91.125H61.7656L64.6016 87.5469H66.3594ZM64.8047 96L61.6953 92.1719L62.625 91.125L66.6406 96H64.8047ZM69.4609 93.7109L73.3594 87.5469H74.8125V96H73.3594V89.8359L69.4609 96H68.0234V87.5469H69.4609V93.7109Z" fill="white"/>
</svg>
