<svg width="91" height="69" viewBox="0 0 91 69" fill="none" xmlns="http://www.w3.org/2000/svg">
<path d="M8.1875 61.3828H9.6875C9.60938 62.1016 9.40365 62.7448 9.07031 63.3125C8.73698 63.8802 8.26562 64.3307 7.65625 64.6641C7.04688 64.9922 6.28646 65.1562 5.375 65.1562C4.70833 65.1562 4.10156 65.0312 3.55469 64.7812C3.01302 64.5312 2.54688 64.1771 2.15625 63.7188C1.76562 63.2552 1.46354 62.7005 1.25 62.0547C1.04167 61.4036 0.9375 60.6797 0.9375 59.8828V58.75C0.9375 57.9531 1.04167 57.2318 1.25 56.5859C1.46354 55.9349 1.76823 55.3776 2.16406 54.9141C2.5651 54.4505 3.04688 54.0938 3.60938 53.8438C4.17188 53.5938 4.80469 53.4688 5.50781 53.4688C6.36719 53.4688 7.09375 53.6302 7.6875 53.9531C8.28125 54.276 8.74219 54.724 9.07031 55.2969C9.40365 55.8646 9.60938 56.5234 9.6875 57.2734H8.1875C8.11458 56.7422 7.97917 56.2865 7.78125 55.9062C7.58333 55.5208 7.30208 55.224 6.9375 55.0156C6.57292 54.8073 6.09635 54.7031 5.50781 54.7031C5.0026 54.7031 4.55729 54.7995 4.17188 54.9922C3.79167 55.1849 3.47135 55.4583 3.21094 55.8125C2.95573 56.1667 2.76302 56.5911 2.63281 57.0859C2.5026 57.5807 2.4375 58.1302 2.4375 58.7344V59.8828C2.4375 60.4401 2.49479 60.9635 2.60938 61.4531C2.72917 61.9427 2.90885 62.3724 3.14844 62.7422C3.38802 63.112 3.69271 63.4036 4.0625 63.6172C4.43229 63.8255 4.86979 63.9297 5.375 63.9297C6.01562 63.9297 6.52604 63.8281 6.90625 63.625C7.28646 63.4219 7.57292 63.1302 7.76562 62.75C7.96354 62.3698 8.10417 61.9141 8.1875 61.3828ZM11.1406 60.8672V60.6875C11.1406 60.0781 11.2292 59.513 11.4062 58.9922C11.5833 58.4661 11.8385 58.0104 12.1719 57.625C12.5052 57.2344 12.9089 56.9323 13.3828 56.7188C13.8568 56.5 14.388 56.3906 14.9766 56.3906C15.5703 56.3906 16.1042 56.5 16.5781 56.7188C17.0573 56.9323 17.4635 57.2344 17.7969 57.625C18.1354 58.0104 18.3932 58.4661 18.5703 58.9922C18.7474 59.513 18.8359 60.0781 18.8359 60.6875V60.8672C18.8359 61.4766 18.7474 62.0417 18.5703 62.5625C18.3932 63.0833 18.1354 63.5391 17.7969 63.9297C17.4635 64.3151 17.0599 64.6172 16.5859 64.8359C16.1172 65.0495 15.5859 65.1562 14.9922 65.1562C14.3984 65.1562 13.8646 65.0495 13.3906 64.8359C12.9167 64.6172 12.5104 64.3151 12.1719 63.9297C11.8385 63.5391 11.5833 63.0833 11.4062 62.5625C11.2292 62.0417 11.1406 61.4766 11.1406 60.8672ZM12.5859 60.6875V60.8672C12.5859 61.2891 12.6354 61.6875 12.7344 62.0625C12.8333 62.4323 12.9818 62.7604 13.1797 63.0469C13.3828 63.3333 13.6354 63.5599 13.9375 63.7266C14.2396 63.888 14.5911 63.9688 14.9922 63.9688C15.388 63.9688 15.7344 63.888 16.0312 63.7266C16.3333 63.5599 16.5833 63.3333 16.7812 63.0469C16.9792 62.7604 17.1276 62.4323 17.2266 62.0625C17.3307 61.6875 17.3828 61.2891 17.3828 60.8672V60.6875C17.3828 60.2708 17.3307 59.8776 17.2266 59.5078C17.1276 59.1328 16.9766 58.8021 16.7734 58.5156C16.5755 58.224 16.3255 57.9948 16.0234 57.8281C15.7266 57.6615 15.3776 57.5781 14.9766 57.5781C14.5807 57.5781 14.2318 57.6615 13.9297 57.8281C13.6328 57.9948 13.3828 58.224 13.1797 58.5156C12.9818 58.8021 12.8333 59.1328 12.7344 59.5078C12.6354 59.8776 12.5859 60.2708 12.5859 60.6875ZM23.9219 56.5469V65H22.4688V56.5469H23.9219ZM26.7578 56.5469V57.7188H19.6875V56.5469H26.7578ZM29.625 58.1719V68.25H28.1719V56.5469H29.5L29.625 58.1719ZM35.3203 60.7031V60.8672C35.3203 61.4818 35.2474 62.0521 35.1016 62.5781C34.9557 63.099 34.7422 63.5521 34.4609 63.9375C34.1849 64.3229 33.8438 64.6224 33.4375 64.8359C33.0312 65.0495 32.5651 65.1562 32.0391 65.1562C31.5026 65.1562 31.0286 65.0677 30.6172 64.8906C30.2057 64.7135 29.8568 64.4557 29.5703 64.1172C29.2839 63.7786 29.0547 63.3724 28.8828 62.8984C28.7161 62.4245 28.6016 61.8906 28.5391 61.2969V60.4219C28.6016 59.7969 28.7188 59.237 28.8906 58.7422C29.0625 58.2474 29.2891 57.8255 29.5703 57.4766C29.8568 57.1224 30.2031 56.8542 30.6094 56.6719C31.0156 56.4844 31.4844 56.3906 32.0156 56.3906C32.5469 56.3906 33.0182 56.4948 33.4297 56.7031C33.8411 56.9062 34.1875 57.1979 34.4688 57.5781C34.75 57.9583 34.9609 58.4141 35.1016 58.9453C35.2474 59.4714 35.3203 60.0573 35.3203 60.7031ZM33.8672 60.8672V60.7031C33.8672 60.2812 33.8229 59.8854 33.7344 59.5156C33.6458 59.1406 33.5078 58.8125 33.3203 58.5312C33.138 58.2448 32.9036 58.0208 32.6172 57.8594C32.3307 57.6927 31.9896 57.6094 31.5938 57.6094C31.2292 57.6094 30.9115 57.6719 30.6406 57.7969C30.375 57.9219 30.1484 58.0911 29.9609 58.3047C29.7734 58.513 29.6198 58.7526 29.5 59.0234C29.3854 59.2891 29.2995 59.5651 29.2422 59.8516V61.875C29.3464 62.2396 29.4922 62.5833 29.6797 62.9062C29.8672 63.224 30.1172 63.4818 30.4297 63.6797C30.7422 63.8724 31.1354 63.9688 31.6094 63.9688C32 63.9688 32.3359 63.888 32.6172 63.7266C32.9036 63.5599 33.138 63.3333 33.3203 63.0469C33.5078 62.7604 33.6458 62.4323 33.7344 62.0625C33.8229 61.6875 33.8672 61.2891 33.8672 60.8672ZM39.4453 64.125L41.7969 56.5469H43.3438L39.9531 66.3047C39.875 66.513 39.7708 66.737 39.6406 66.9766C39.5156 67.2214 39.3542 67.4531 39.1562 67.6719C38.9583 67.8906 38.7188 68.0677 38.4375 68.2031C38.1615 68.3438 37.8307 68.4141 37.4453 68.4141C37.3307 68.4141 37.1849 68.3984 37.0078 68.3672C36.8307 68.3359 36.7057 68.3099 36.6328 68.2891L36.625 67.1172C36.6667 67.1224 36.7318 67.1276 36.8203 67.1328C36.9141 67.1432 36.9792 67.1484 37.0156 67.1484C37.3438 67.1484 37.6224 67.1042 37.8516 67.0156C38.0807 66.9323 38.2734 66.7891 38.4297 66.5859C38.5911 66.388 38.7292 66.1146 38.8438 65.7656L39.4453 64.125ZM37.7188 56.5469L39.9141 63.1094L40.2891 64.6328L39.25 65.1641L36.1406 56.5469H37.7188ZM45.7344 56.5469H47.1797L47.0547 59.7109C47.0234 60.513 46.9323 61.2057 46.7812 61.7891C46.6302 62.3724 46.4375 62.8698 46.2031 63.2812C45.9688 63.6875 45.7057 64.0286 45.4141 64.3047C45.1276 64.5807 44.8307 64.8125 44.5234 65H43.8047L43.8438 63.8203L44.1406 63.8125C44.3125 63.6094 44.4792 63.401 44.6406 63.1875C44.8021 62.9688 44.9505 62.7109 45.0859 62.4141C45.2214 62.112 45.3333 61.7448 45.4219 61.3125C45.5156 60.875 45.5755 60.3411 45.6016 59.7109L45.7344 56.5469ZM46.0938 56.5469H51.1797V65H49.7344V57.8828H46.0938V56.5469ZM43.4766 63.8125H52.2656V67.4922H50.8203V65H44.9219V67.4922H43.4688L43.4766 63.8125ZM59.6016 60.2109V61.3828H55.1328V60.2109H59.6016ZM55.4375 56.5469V65H53.9922V56.5469H55.4375ZM60.7734 56.5469V65H59.3203V56.5469H60.7734ZM64.6641 62.7109L68.5625 56.5469H70.0156V65H68.5625V58.8359L64.6641 65H63.2266V56.5469H64.6641V62.7109ZM73.9062 56.5469V65H72.4609V56.5469H73.9062ZM79.4531 56.5469L75.4453 61.3906H73.4219L73.2031 60.125H74.8594L77.6953 56.5469H79.4531ZM77.8984 65L74.7891 61.1719L75.7188 60.125L79.7344 65H77.8984ZM82.5547 62.7109L86.4531 56.5469H87.9062V65H86.4531V58.8359L82.5547 65H81.1172V56.5469H82.5547V62.7109Z" fill="white"/>
<g clip-path="url(#clip0_1_60)">
<path d="M41.8333 0C36.1124 0 31.4167 4.69642 31.4167 10.4146C31.4167 13.4996 32.7852 16.2857 34.9424 18.1989C26.7981 21.2142 21 29.4072 21 38.8897C21.0001 39.6261 21.2928 40.3324 21.8139 40.8532C22.335 41.374 23.0417 41.6666 23.7786 41.6667H37.1449C37.6912 39.6484 38.5661 37.7709 39.7192 36.1128H26.7772C28.0061 28.3116 34.3236 22.515 41.8333 22.515C42.8741 22.515 43.8907 22.63 44.8753 22.8426C45.2134 19.4495 47.6192 16.6356 50.8022 15.6833C51.7206 14.1344 52.25 12.3323 52.25 10.4146C52.25 4.69642 47.5542 0 41.8333 0ZM41.8333 5.55387C44.5492 5.55387 46.6927 7.69623 46.6927 10.4146C46.6927 13.1329 44.5492 15.2756 41.8333 15.2756C39.1175 15.2756 36.9738 13.1329 36.9738 10.4146C36.9738 7.69623 39.1175 5.55387 41.8333 5.55387Z" fill="white"/>
<path d="M54.3333 16.6667C49.7566 16.6667 46 20.4239 46 24.9984C46 27.4664 47.0947 29.6952 48.8205 31.2258C42.3051 33.638 37.6666 40.1925 37.6666 47.7784C37.6667 48.3676 37.9009 48.9326 38.3177 49.3492C38.7346 49.7659 39.3 49.9999 39.8895 50H54.3333H68.777C69.3665 50 69.9319 49.7659 70.3488 49.3493C70.7657 48.9327 70.9999 48.3676 71 47.7784C71 40.1925 66.3616 33.638 59.8462 31.2258C61.572 29.6952 62.6666 27.4664 62.6666 24.9984C62.6666 20.4239 58.91 16.6667 54.3333 16.6667ZM54.3333 21.1098C56.506 21.1098 58.2208 22.8237 58.2208 24.9984C58.2208 27.173 56.506 28.8872 54.3333 28.8872C52.1606 28.8872 50.4457 27.173 50.4457 24.9984C50.4457 22.8237 52.1606 21.1098 54.3333 21.1098ZM54.3333 34.6786C60.3411 34.6786 65.3951 39.3159 66.3782 45.5569H54.3333H42.2884C43.2715 39.3159 48.3255 34.6786 54.3333 34.6786Z" fill="white"/>
</g>
<defs>
<clipPath id="clip0_1_60">
<rect width="50" height="50" fill="white" transform="translate(21)"/>
</clipPath>
</defs>
</svg>
