<svg width="91" height="79" viewBox="0 0 91 79" fill="none" xmlns="http://www.w3.org/2000/svg">
<path d="M8.75 68.5156V69.7422H2.59375V68.5156H8.75ZM2.82812 63.625V75H1.32031V63.625H2.82812ZM10.0625 63.625V75H8.5625V63.625H10.0625ZM17.5078 73.5547V69.2031C17.5078 68.8698 17.4401 68.5807 17.3047 68.3359C17.1745 68.0859 16.9766 67.8932 16.7109 67.7578C16.4453 67.6224 16.1172 67.5547 15.7266 67.5547C15.362 67.5547 15.0417 67.6172 14.7656 67.7422C14.4948 67.8672 14.2812 68.0312 14.125 68.2344C13.974 68.4375 13.8984 68.6562 13.8984 68.8906H12.4531C12.4531 68.5885 12.5312 68.2891 12.6875 67.9922C12.8438 67.6953 13.0677 67.4271 13.3594 67.1875C13.6562 66.9427 14.0104 66.75 14.4219 66.6094C14.8385 66.4635 15.3021 66.3906 15.8125 66.3906C16.4271 66.3906 16.9688 66.4948 17.4375 66.7031C17.9115 66.9115 18.2812 67.2266 18.5469 67.6484C18.8177 68.0651 18.9531 68.5885 18.9531 69.2188V73.1562C18.9531 73.4375 18.9766 73.737 19.0234 74.0547C19.0755 74.3724 19.151 74.6458 19.25 74.875V75H17.7422C17.6693 74.8333 17.612 74.612 17.5703 74.3359C17.5286 74.0547 17.5078 73.7943 17.5078 73.5547ZM17.7578 69.875L17.7734 70.8906H16.3125C15.901 70.8906 15.5339 70.9245 15.2109 70.9922C14.888 71.0547 14.6172 71.151 14.3984 71.2812C14.1797 71.4115 14.013 71.5755 13.8984 71.7734C13.7839 71.9661 13.7266 72.1927 13.7266 72.4531C13.7266 72.7188 13.7865 72.9609 13.9062 73.1797C14.026 73.3984 14.2057 73.5729 14.4453 73.7031C14.6901 73.8281 14.9896 73.8906 15.3438 73.8906C15.7865 73.8906 16.1771 73.7969 16.5156 73.6094C16.8542 73.4219 17.1224 73.1927 17.3203 72.9219C17.5234 72.651 17.6328 72.388 17.6484 72.1328L18.2656 72.8281C18.2292 73.0469 18.1302 73.2891 17.9688 73.5547C17.8073 73.8203 17.5911 74.0755 17.3203 74.3203C17.0547 74.5599 16.737 74.7604 16.3672 74.9219C16.0026 75.0781 15.5911 75.1562 15.1328 75.1562C14.5599 75.1562 14.0573 75.0443 13.625 74.8203C13.1979 74.5964 12.8646 74.2969 12.625 73.9219C12.3906 73.5417 12.2734 73.1172 12.2734 72.6484C12.2734 72.1953 12.362 71.7969 12.5391 71.4531C12.7161 71.1042 12.9714 70.8151 13.3047 70.5859C13.638 70.3516 14.0391 70.1745 14.5078 70.0547C14.9766 69.9349 15.5 69.875 16.0781 69.875H17.7578ZM24.6094 73.9688C24.9531 73.9688 25.2708 73.8984 25.5625 73.7578C25.8542 73.6172 26.0938 73.4245 26.2812 73.1797C26.4688 72.9297 26.5755 72.6458 26.6016 72.3281H27.9766C27.9505 72.8281 27.7812 73.2943 27.4688 73.7266C27.1615 74.1536 26.7578 74.5 26.2578 74.7656C25.7578 75.026 25.2083 75.1562 24.6094 75.1562C23.974 75.1562 23.4193 75.0443 22.9453 74.8203C22.4766 74.5964 22.0859 74.2891 21.7734 73.8984C21.4661 73.5078 21.2344 73.0599 21.0781 72.5547C20.9271 72.0443 20.8516 71.5052 20.8516 70.9375V70.6094C20.8516 70.0417 20.9271 69.5052 21.0781 69C21.2344 68.4896 21.4661 68.0391 21.7734 67.6484C22.0859 67.2578 22.4766 66.9505 22.9453 66.7266C23.4193 66.5026 23.974 66.3906 24.6094 66.3906C25.2708 66.3906 25.849 66.526 26.3438 66.7969C26.8385 67.0625 27.2266 67.4271 27.5078 67.8906C27.7943 68.349 27.9505 68.8698 27.9766 69.4531H26.6016C26.5755 69.1042 26.4766 68.7891 26.3047 68.5078C26.138 68.2266 25.9089 68.0026 25.6172 67.8359C25.3307 67.6641 24.9948 67.5781 24.6094 67.5781C24.1667 67.5781 23.7943 67.6667 23.4922 67.8438C23.1953 68.0156 22.9583 68.25 22.7812 68.5469C22.6094 68.8385 22.4844 69.1641 22.4062 69.5234C22.3333 69.8776 22.2969 70.2396 22.2969 70.6094V70.9375C22.2969 71.3073 22.3333 71.6719 22.4062 72.0312C22.4792 72.3906 22.6016 72.7161 22.7734 73.0078C22.9505 73.2995 23.1875 73.5339 23.4844 73.7109C23.7865 73.8828 24.1615 73.9688 24.6094 73.9688ZM33.0469 66.5469V75H31.5938V66.5469H33.0469ZM35.8828 66.5469V67.7188H28.8125V66.5469H35.8828ZM38.75 68.1719V78.25H37.2969V66.5469H38.625L38.75 68.1719ZM44.4453 70.7031V70.8672C44.4453 71.4818 44.3724 72.0521 44.2266 72.5781C44.0807 73.099 43.8672 73.5521 43.5859 73.9375C43.3099 74.3229 42.9688 74.6224 42.5625 74.8359C42.1562 75.0495 41.6901 75.1562 41.1641 75.1562C40.6276 75.1562 40.1536 75.0677 39.7422 74.8906C39.3307 74.7135 38.9818 74.4557 38.6953 74.1172C38.4089 73.7786 38.1797 73.3724 38.0078 72.8984C37.8411 72.4245 37.7266 71.8906 37.6641 71.2969V70.4219C37.7266 69.7969 37.8438 69.237 38.0156 68.7422C38.1875 68.2474 38.4141 67.8255 38.6953 67.4766C38.9818 67.1224 39.3281 66.8542 39.7344 66.6719C40.1406 66.4844 40.6094 66.3906 41.1406 66.3906C41.6719 66.3906 42.1432 66.4948 42.5547 66.7031C42.9661 66.9062 43.3125 67.1979 43.5938 67.5781C43.875 67.9583 44.0859 68.4141 44.2266 68.9453C44.3724 69.4714 44.4453 70.0573 44.4453 70.7031ZM42.9922 70.8672V70.7031C42.9922 70.2812 42.9479 69.8854 42.8594 69.5156C42.7708 69.1406 42.6328 68.8125 42.4453 68.5312C42.263 68.2448 42.0286 68.0208 41.7422 67.8594C41.4557 67.6927 41.1146 67.6094 40.7188 67.6094C40.3542 67.6094 40.0365 67.6719 39.7656 67.7969C39.5 67.9219 39.2734 68.0911 39.0859 68.3047C38.8984 68.513 38.7448 68.7526 38.625 69.0234C38.5104 69.2891 38.4245 69.5651 38.3672 69.8516V71.875C38.4714 72.2396 38.6172 72.5833 38.8047 72.9062C38.9922 73.224 39.2422 73.4818 39.5547 73.6797C39.8672 73.8724 40.2604 73.9688 40.7344 73.9688C41.125 73.9688 41.4609 73.888 41.7422 73.7266C42.0286 73.5599 42.263 73.3333 42.4453 73.0469C42.6328 72.7604 42.7708 72.4323 42.8594 72.0625C42.9479 71.6875 42.9922 71.2891 42.9922 70.8672ZM45.9062 70.8672V70.6875C45.9062 70.0781 45.9948 69.513 46.1719 68.9922C46.349 68.4661 46.6042 68.0104 46.9375 67.625C47.2708 67.2344 47.6745 66.9323 48.1484 66.7188C48.6224 66.5 49.1536 66.3906 49.7422 66.3906C50.3359 66.3906 50.8698 66.5 51.3438 66.7188C51.8229 66.9323 52.2292 67.2344 52.5625 67.625C52.901 68.0104 53.1589 68.4661 53.3359 68.9922C53.513 69.513 53.6016 70.0781 53.6016 70.6875V70.8672C53.6016 71.4766 53.513 72.0417 53.3359 72.5625C53.1589 73.0833 52.901 73.5391 52.5625 73.9297C52.2292 74.3151 51.8255 74.6172 51.3516 74.8359C50.8828 75.0495 50.3516 75.1562 49.7578 75.1562C49.1641 75.1562 48.6302 75.0495 48.1562 74.8359C47.6823 74.6172 47.276 74.3151 46.9375 73.9297C46.6042 73.5391 46.349 73.0833 46.1719 72.5625C45.9948 72.0417 45.9062 71.4766 45.9062 70.8672ZM47.3516 70.6875V70.8672C47.3516 71.2891 47.401 71.6875 47.5 72.0625C47.599 72.4323 47.7474 72.7604 47.9453 73.0469C48.1484 73.3333 48.401 73.5599 48.7031 73.7266C49.0052 73.888 49.3568 73.9688 49.7578 73.9688C50.1536 73.9688 50.5 73.888 50.7969 73.7266C51.099 73.5599 51.349 73.3333 51.5469 73.0469C51.7448 72.7604 51.8932 72.4323 51.9922 72.0625C52.0964 71.6875 52.1484 71.2891 52.1484 70.8672V70.6875C52.1484 70.2708 52.0964 69.8776 51.9922 69.5078C51.8932 69.1328 51.7422 68.8021 51.5391 68.5156C51.3411 68.224 51.0911 67.9948 50.7891 67.8281C50.4922 67.6615 50.1432 67.5781 49.7422 67.5781C49.3464 67.5781 48.9974 67.6615 48.6953 67.8281C48.3984 67.9948 48.1484 68.224 47.9453 68.5156C47.7474 68.8021 47.599 69.1328 47.5 69.5078C47.401 69.8776 47.3516 70.2708 47.3516 70.6875ZM56.9766 72.7109L60.875 66.5469H62.3281V75H60.875V68.8359L56.9766 75H55.5391V66.5469H56.9766V72.7109ZM60.0859 63.4844H61.2578C61.2578 63.8906 61.1641 64.2526 60.9766 64.5703C60.7891 64.8828 60.5208 65.1276 60.1719 65.3047C59.8229 65.4818 59.4089 65.5703 58.9297 65.5703C58.2057 65.5703 57.6328 65.3776 57.2109 64.9922C56.7943 64.6016 56.5859 64.099 56.5859 63.4844H57.7578C57.7578 63.7917 57.8464 64.0625 58.0234 64.2969C58.2005 64.5312 58.5026 64.6484 58.9297 64.6484C59.3464 64.6484 59.6432 64.5312 59.8203 64.2969C59.9974 64.0625 60.0859 63.7917 60.0859 63.4844ZM66.2188 66.5469V75H64.7734V66.5469H66.2188ZM71.7656 66.5469L67.7578 71.3906H65.7344L65.5156 70.125H67.1719L70.0078 66.5469H71.7656ZM70.2109 75L67.1016 71.1719L68.0312 70.125L72.0469 75H70.2109ZM74.8672 72.7109L78.7656 66.5469H80.2188V75H78.7656V68.8359L74.8672 75H73.4297V66.5469H74.8672V72.7109Z" fill="white"/>
<rect width="60" height="60" transform="translate(15)" fill="#002137"/>
<path d="M45 37.5C49.1421 37.5 52.5 34.1421 52.5 30C52.5 25.8579 49.1421 22.5 45 22.5C40.8579 22.5 37.5 25.8579 37.5 30C37.5 34.1421 40.8579 37.5 45 37.5Z" stroke="white" stroke-width="5"/>
<path d="M49.4135 5.3806C48.4945 5 47.3297 5 45 5C42.6702 5 41.5055 5 40.5865 5.3806C39.3614 5.88807 38.388 6.86145 37.8806 8.08657C37.6489 8.64585 37.5582 9.29625 37.5228 10.245C37.4706 11.6392 36.7556 12.9297 35.5473 13.6273C34.3391 14.3249 32.864 14.2988 31.6305 13.6469C30.7911 13.2032 30.1825 12.9565 29.5823 12.8775C28.2676 12.7044 26.9379 13.0607 25.8859 13.868C25.0968 14.4734 24.5144 15.4822 23.3496 17.4998C22.1847 19.5174 21.6023 20.5262 21.4725 21.5123C21.2994 22.827 21.6557 24.1566 22.4629 25.2087C22.8314 25.689 23.3492 26.0925 24.153 26.5975C25.3345 27.34 26.0947 28.6047 26.0946 30C26.0946 31.3952 25.3344 32.6597 24.1529 33.402C23.3491 33.9072 22.8312 34.311 22.4627 34.7912C21.6554 35.8432 21.2991 37.1727 21.4722 38.4875C21.602 39.4735 22.1845 40.4825 23.3493 42.5C24.5142 44.5175 25.0966 45.5265 25.8856 46.1317C26.9377 46.939 28.2673 47.2952 29.5821 47.1222C30.1822 47.0432 30.7908 46.7965 31.6301 46.353C32.8637 45.701 34.3389 45.675 35.5472 46.3725C36.7556 47.0702 37.4706 48.3607 37.5228 49.7552C37.5583 50.7037 37.6489 51.3542 37.8806 51.9135C38.388 53.1385 39.3614 54.112 40.5865 54.6195C41.5055 55 42.6702 55 45 55C47.3297 55 48.4945 55 49.4135 54.6195C50.6385 54.112 51.612 53.1385 52.1192 51.9135C52.351 51.3542 52.4417 50.7037 52.4772 49.755C52.5292 48.3607 53.2442 47.0702 54.4525 46.3725C55.6607 45.6747 57.136 45.701 58.3697 46.353C59.209 46.7965 59.8175 47.043 60.4175 47.122C61.7322 47.2952 63.062 46.939 64.114 46.1317C64.903 45.5262 65.4855 44.5175 66.6502 42.4997C67.8152 40.4822 68.3977 39.4735 68.5275 38.4875C68.7005 37.1727 68.3442 35.843 67.537 34.791C67.1685 34.3107 66.6505 33.907 65.8467 33.402C64.6655 32.6597 63.9052 31.395 63.9052 29.9997C63.9052 28.6045 64.6655 27.3402 65.8467 26.598C66.6507 26.0927 67.1687 25.6892 67.5372 25.2087C68.3445 24.1568 68.7007 22.8272 68.5277 21.5124C68.398 20.5264 67.8155 19.5176 66.6505 17.5C65.4857 15.4824 64.9032 14.4736 64.1142 13.8682C63.0622 13.0609 61.7325 12.7046 60.4177 12.8777C59.8177 12.9567 59.2092 13.2034 58.3697 13.647C57.1362 14.299 55.661 14.325 54.4527 13.6274C53.2442 12.9298 52.5292 11.6391 52.4772 10.2448C52.4417 9.2962 52.351 8.64582 52.1192 8.08657C51.612 6.86145 50.6385 5.88807 49.4135 5.3806Z" stroke="white" stroke-width="5"/>
</svg>
